<?xml version="1.0" standalone="no"?><svg xmlns="http://www.w3.org/2000/svg" viewBox="0 0 1440 320">
 <rect width="1440" height="320" fill="#F08E5D" /> 
<path fill="#5DACF0" fill-opacity="1" d="M0,256L10,224C20,192,40,128,60,112C80,96,100,128,120,122.7C140,117,160,75,180,69.3C200,64,220,96,240,128C260,160,280,192,300,181.3C320,171,340,117,360,106.7C380,96,400,128,420,160C440,192,460,224,480,240C500,256,520,256,540,224C560,192,580,128,600,122.7C620,117,640,171,660,192C680,213,700,203,720,181.3C740,160,760,128,780,128C800,128,820,160,840,149.3C860,139,880,85,900,80C920,75,940,117,960,138.7C980,160,1000,160,1020,160C1040,160,1060,160,1080,154.7C1100,149,1120,139,1140,117.3C1160,96,1180,64,1200,80C1220,96,1240,160,1260,176C1280,192,1300,160,1320,170.7C1340,181,1360,235,1380,261.3C1400,288,1420,288,1430,288L1440,288L1440,0L1430,0C1420,0,1400,0,1380,0C1360,0,1340,0,1320,0C1300,0,1280,0,1260,0C1240,0,1220,0,1200,0C1180,0,1160,0,1140,0C1120,0,1100,0,1080,0C1060,0,1040,0,1020,0C1000,0,980,0,960,0C940,0,920,0,900,0C880,0,860,0,840,0C820,0,800,0,780,0C760,0,740,0,720,0C700,0,680,0,660,0C640,0,620,0,600,0C580,0,560,0,540,0C520,0,500,0,480,0C460,0,440,0,420,0C400,0,380,0,360,0C340,0,320,0,300,0C280,0,260,0,240,0C220,0,200,0,180,0C160,0,140,0,120,0C100,0,80,0,60,0C40,0,20,0,10,0L0,0Z"></path></svg>